/* XPM */
static char *fa0646e764b649d1c28a7bbf7953370eukeJfzaZZdwULYI0[] = {
/* columns rows colors chars-per-pixel */
"60 60 248 2 ",
"   c #030101",
".  c #0A0303",
"X  c #0D0906",
"o  c #0C0A0C",
"O  c #06060A",
"+  c #140100",
"@  c #1C0100",
"#  c #110904",
"$  c #120D0D",
"%  c #180C0A",
"&  c #16110E",
"*  c #18110B",
"=  c #0E0E10",
"-  c #120F11",
";  c #180F10",
":  c #151213",
">  c #1A1514",
",  c #1D1916",
"<  c #1B1618",
"1  c #1D1B1B",
"2  c #151619",
"3  c #0F1110",
"4  c #230000",
"5  c #2B0100",
"6  c #280903",
"7  c #320300",
"8  c #3A0400",
"9  c #380B05",
"0  c #22170F",
"q  c #221A17",
"w  c #221D1C",
"e  c #2B1B17",
"r  c #341D1C",
"t  c #381C1B",
"y  c #25211E",
"u  c #2A211D",
"i  c #2C2417",
"p  c #35221C",
"a  c #34271B",
"s  c #38311F",
"d  c #1D1D25",
"f  c #251F21",
"g  c #371E22",
"h  c #252222",
"j  c #2B2524",
"k  c #2D2926",
"l  c #2C2729",
"z  c #2D2A2A",
"x  c #252629",
"c  c #342524",
"v  c #392424",
"b  c #332B24",
"n  c #3B2B25",
"m  c #332D2C",
"M  c #3A2D2C",
"N  c #352628",
"B  c #35312E",
"V  c #3B322E",
"C  c #383226",
"Z  c #332E33",
"A  c #3A2E31",
"S  c #363233",
"D  c #3B3433",
"F  c #3D3936",
"G  c #363239",
"H  c #3C3439",
"J  c #3D3A3A",
"K  c #373B3E",
"L  c #2E2F30",
"P  c #1C221E",
"I  c #450906",
"U  c #48140C",
"Y  c #491B14",
"T  c #541B17",
"R  c #54120A",
"E  c #6C0D00",
"W  c #650500",
"Q  c #6B1207",
"!  c #741503",
"~  c #7B1B04",
"^  c #771909",
"/  c #771E14",
"(  c #4A251C",
")  c #57231D",
"_  c #7E2209",
"`  c #7C2116",
"'  c #60241A",
"]  c #452C28",
"[  c #5C2C25",
"{  c #572823",
"}  c #42332D",
"|  c #45362E",
" . c #433534",
".. c #433A35",
"X. c #41363C",
"o. c #443C3B",
"O. c #4B3C3C",
"+. c #4C3934",
"@. c #563A37",
"#. c #5B3130",
"$. c #682A25",
"%. c #68312A",
"&. c #643837",
"*. c #78362E",
"=. c #45413D",
"-. c #4B433D",
";. c #474135",
":. c #54443C",
">. c #58463D",
",. c #63463D",
"<. c #7D493F",
"1. c #3F3D42",
"2. c #443D43",
"3. c #4B3F41",
"4. c #3F4042",
"5. c #454443",
"6. c #4B4443",
"7. c #4D4A46",
"8. c #4D4B4A",
"9. c #4A454A",
"0. c #534443",
"q. c #5A4645",
"w. c #534B44",
"e. c #5B4B44",
"r. c #534C4A",
"t. c #5B4C4C",
"y. c #574649",
"u. c #55514D",
"i. c #5C544C",
"p. c #5B554A",
"a. c #4E4D53",
"s. c #5C4D53",
"d. c #544E52",
"f. c #555352",
"g. c #5C5453",
"h. c #5D5954",
"j. c #5B575A",
"k. c #4F5054",
"l. c #664A46",
"z. c #744843",
"x. c #63544D",
"c. c #6B524C",
"v. c #63594F",
"b. c #75524D",
"n. c #635555",
"m. c #635B54",
"M. c #63555A",
"N. c #635C5A",
"B. c #6A5C5C",
"V. c #6B5955",
"C. c #735753",
"Z. c #68625C",
"A. c #77635C",
"S. c #685E60",
"D. c #6B6563",
"F. c #6D6A65",
"G. c #756965",
"H. c #79716C",
"J. c #7C7673",
"K. c #7B7875",
"L. c #5F5E63",
"P. c #821D0A",
"I. c #83230B",
"U. c #8A260C",
"Y. c #842413",
"T. c #8A2612",
"R. c #8A2B1A",
"E. c #96341B",
"W. c #942F14",
"Q. c #872C23",
"!. c #8E3528",
"~. c #93382A",
"^. c #8C3D37",
"/. c #953B34",
"(. c #902E21",
"). c #A33B20",
"_. c #87443C",
"`. c #98443A",
"'. c #A8462B",
"]. c #A74A39",
"[. c #B55437",
"{. c #B05035",
"}. c #C2593B",
"|. c #894944",
" X c #984C45",
".X c #8C534C",
"XX c #9A534B",
"oX c #8D5355",
"OX c #9B5854",
"+X c #894C51",
"@X c #A44E47",
"#X c #AC544C",
"$X c #A7574A",
"%X c #B55A48",
"&X c #A15552",
"*X c #A75C56",
"=X c #B55A53",
"-X c #A8615A",
";X c #BA6659",
":X c #B9634B",
">X c #87736C",
",X c #847B79",
"<X c #867875",
"1X c #947B76",
"2X c #8D6F6A",
"3X c #A76363",
"4X c #BF6F68",
"5X c #C46548",
"6X c #C46A58",
"7X c #D37155",
"8X c #DA7965",
"9X c #CF7668",
"0X c #E37D67",
"qX c #C05D46",
"wX c #8B837C",
"eX c #96827C",
"rX c #A1827E",
"tX c #DA8363",
"yX c #D28474",
"uX c #E5856A",
"iX c #EA8F77",
"pX c #8E8B89",
"aX c #8A8582",
"sX c #938D8B",
"dX c #9B8C8A",
"fX c #978883",
"gX c #9B928D",
"hX c #9A9794",
"jX c #A28B86",
"kX c #A79996",
"lX c #B19995",
"zX c #A2928C",
"xX c #A8A19E",
"cX c #B2A39D",
"vX c #B5A4A3",
"bX c #ADA5A3",
"nX c #D5948A",
"mX c #EB9D88",
"MX c #E8A598",
"NX c #FAB99A",
"BX c #F5AC8F",
"VX c #FABAA7",
"CX c #FFCBB9",
"ZX c #FED3BB",
"AX c #FFCCAE",
"SX c #FFD9C4",
"DX c #FFE6CE",
"FX c #FFE8D5",
/* pixels */
"                                              B 7.Z.,XdXcXvXvXvXzX<XS.3.] .   .       .   . .                           ",
"                                  X   X     X k 6.m.<XdXkXxXvXlXdX<XM.3.N . .   .         . . .                   .     ",
"    o 2 1 l L Z S S B B L z k k L 5.h.L.u.L O X B r.D.<XaXfXdXdX<XG.y.A X . l s.L.j.7.A m m M m B B B B B z h y : X     ",
"    2 h z J 6.7.r.r.7.7.-.5.=.J u.F.wXaXK.7.  X X F y.n.S.G.G.S.B.0.A # .   9.J.pXaXD.7.5.6.0.w.r.r.7.r.7.5.J B h :     ",
"  . < N H 0.g.g.n.n.h.u.u.u.u.8.f.K.hXxXhXh.3 X   % q j N X.A X.A f ; .   X L.sXkXhXK.h.g.g.n.h.h.h.h.h.g.u.5.F z 1     ",
"    > N A 3.0.s.n.m.Z.N.h.h.h.p.h.K.pXhXpXK.h.8.k     . . . . .   . . m o.j.K.pXhXpXJ.N.g.N.N.N.j.Z.h.g.u.r.=.J m ,     ",
"  . q f M  .o.0.t.n.m.Z.Z.m.h.p.u.Z.F.K.aXpXpXK.r.      .   .         9.H.aXpXaXK.H.D.n.h.h.N.n.Z.h.h.7.=.J F S z ,     ",
". . q f N M N  .6.e.m.Z.Z.Z.m.h.h.u.u.h.K.hXhXpXh..     .     .     O j.pXxXsXK.L.g.j.N.n.m.N.m.h.j.u.=.D B D G k 1 O   ",
". . q c M M M M O.3.l.n.Z.Z.h.v.p.p.w.u.F.aXgXwXZ.j X w m j w w &   k Z.,XpXpXH.f.p.h.m.m.m.m.h.f.r.6.J V B S B k ,     ",
".   q N  . .] A }  .;.0.p.v.v.v.h.h.p.i.Z.H.H.F.h.o.D O.6.o.X.D F S 5.h.F.H.H.Z.m.p.v.p.p.v.h.h.7.=.J F D D D S k ,     ",
"  . w A  .X.} } b n V ..:.p.h.Z.Z.Z.v.p.i.v.m.m.h.h.N.N.M.g.g.i.p.h.h.p.j.Z.N.m.m.p.m.v.h.v.p.-.o.B B V F D D S l ,     ",
"    w m X.X.} A v v b } ;.:.p.m.Z.v.p.p.m.G.H.>X>X<X<X,X<X<X,X,XK.,XK.wXK.K.G.Z.p.p.m.m.p.p.u.;.F b N V S S D D z 1     ",
"    , m D D M n M M V } } ..-.p.v.v.,.p.G.1XdXzXdXgXdXdXzXkXkXkXxXgXsXgXkXkXwXA.w.>.v.m.p.>.;.F V m k m b B D D S 1     ",
"    P x V V m n M } | } a C ;.p.v.v.v.m.H.fXkXlXlXlXlXkXkXcXvXvXxXxXzXxXcXcXrXH.p.w.v.Z.h.;.C C B V m N k B F D m 1     ",
"    , z B B V m n }  .C b b C | >.v.A.>X1X1XeXfXfXfXeXeXfXfXdXjXeXeXeXeXeXeXeXwXH.A.v.>.;.C C b V B V m m V S m k 1     ",
"    1 z D D V M V D } V C a i > | C.eXzXeX>XC.l.c.c.c.c.b.c.C.C.A.v.v.v.v.F.wXrXzXwXZ.s * i C s V M V V m m m k y :     ",
"O O P L B J B V M } } M n n i 0 | A.rXlXrXb.4 + + 4 5 5 7 5 5 4 4 4 @ + . + C.eXlXjXA.] # a s s | B V D B B S B j <     ",
"  O P K 5.7.D m m V V n a n @.e.A.>XeXrX2X3.4 4 7 U T R R I 8 7 7 7 6 @ + @ ,.2XrXrX1XA.x.;.a i B V V B B J o.5.H h     ",
"O O L 5.f.8.F m b m } v e n V.1XrXeX2Xz.&.{ I ) *.|.+X+X|.*.$.{ T T U 9 9 9 { &.b.>XrXjXwXm.} % b V V b m o.t.f.8.z     ",
"  O L 5.h.8.o.m b M } v e } A.fXlXrXb.7 4 I $.^.&X3X=X*X*X3XOX*XOX3XOX+X^.$.I 5 5 .XrXcXdXG.] 6 N V B m B =.f.j.f.H .   ",
"    k 4.8.r.7.5.o. .M M ] @.G.1XeX2X&.7 I ' ^.@X=X=X;X;X9XyXnXMXMXMXnXnX;X^.W I 7 z.2XzXeXG.O.v M B B ..5.w.f.u.5.k     ",
"    3 P z 5.s.M.s.O.n  .0.q.C.V.C.,.{ U $.`.@X=X=X=X6X6X9XMXVXSXSXSXSXVXyX@XR R I [ z.A.V.p.l.:. .V ..r.f.u.5.m h :     ",
".       . S g.S.M.O.n O.l.x.q.] 6 6 Y $.^.@X&X=X#X=X=X6X9XNXCXSXFXFXFXVXmX=XQ.*.$.T 7 @ s e.v.l.o.M =.n.Z.u.m .       . ",
", > X     m 6.g.t.X.A O.n.C.3.@ # 6 [ _. X@X@X@X/.@X%X;X9XmXVXZXFXFXFXSXMX#XQ.`.`.) 7 # + -.v.x.O.V ..w.r.=.j       & , ",
"u u q . . < N X.H  . .3.M.C.3.t + { z.XXOX`./.!.(.(.'.%X5XtXiXNXZXDXDXZXBX{.!.`. X*.U @ e w.v.i.=.V m V D m &   . & P y ",
"D B n f < o . . < N A 3.M.M.l.t 4 [ .X*X&X/.Y.! ! T.(.'.%X:X:XyXNXAXDXAXmX:X'.$X=X_.) 4 i :.n.t.o.M u * X . . $ , j B B ",
"-.o.D A f -     . f X.9.s.n.q.t 4 %.OX-X#X~.^ W E P.T.E.'.{.{.:XiXAXAXNXiX:X:X:X-X`.$.4 t w.M.s.=.D e .     X y B J 7.8.",
"t.e.0.o.A f -   - f H 3.t.n.3.t 4 $.oX=X#X/.` ! P.P.P.T.E.{.[.6XiXiXBXiXyXtX:X;X=X.X$.4 t 0.M.s.6.M q # . X , b =.u.h.h.",
"t.i.y.6.X.l < O - f G 3.g.M.0.r 4 $..X*X#X/.T.^ I.I.I.P.U.).{.}.5X7X0XuXuX8X9X6X-X X%.4 p 0.M.n.6.m u % . # w S 7.h.Z.D.",
"B.n.t.6.A l - O - x G 9.d.s.7.r 4 [ +X#X$X/.Y.^ I.I.P.! _ W.'.{.}.}.5X7X0XuX0X6X$X|.{ 4 p y.M.s.0.M j * . # j D 7.h.D.D.",
"B.n.t.6.H f - O - x G 9.g.g.6.r @ [ |.&X@X~.Y.! _ I._ ~ _ _ U.E.'.[.qX7XuXiX0X9X&X_.) 4 r 0.n.i.-.M u % . & u B =.u.m.h.",
"B.N.s.o.m d o O 2 x G 9.s.M.r.p 4 [ |.XX X~.` ! ~ I._ _ _ ! E ~ W.'.qX7X0X0X0X6X$X_.{ 5 t :.i.x.-.D c * . X , b =.w.f.p.",
"n.i.0.J k 3   O = x G 9.j.M.d.g 6 ) .XOX$X~.` ~ ~ U._ _ P.! W E U.W.'.5X7X8X8X;X-X_.{ 5 t 0.n.g.0.D u %     > k D =.w.u.",
"6.-...m P O     O P G 9.j.L.s.g 4 [ .X-X$X~._ ! _ Y.Y.Y.Y.P.~ P.I.U.(.{.:X6X6X:X-X_.{ 4 t y.n.g.6.M q #     & y B J =.7.",
"F V B P 3   O O = d G 9.M.S.s.g @ [ .XOX$X`.Y._ Y.T.Y.T.T.T.T.T.U.P.P.).{.[.:X:X$X_.[ 5 t t.n.g.6.A w % .   X , k B J F ",
"j j , X   2 L K G L G 9.M.S.l.g 6 ( _.OXXX`.~.(.R.Y.^ _ P.P.T.Y.P.E ! (.].$X$X*XXX<.( 4 t t.n.M.6.M m M M k > . & y L C ",
"> > X     z 4.k.3.X.N 2.s.B.y.g @ 9 $._.`. X].`.Q.^ E Q ^ ^ ^ ^ E W E (.{.%X$X].|.$.9 @ Y y.M.M.6. .o.6.6...y     & P P ",
". .     O S k.L.L.2.G 2.s.M.3.] 5 7 R $._.@X&X].~.` ^ / ` / / / / Q / /.@X*X$X`.*.) 7 5 ] t.V.n.3.D O.t.g.r.m           ",
"    : h L 5.k.k.a.2.2.X.3.y.q.@.{ ( U R $.`. X@X X^.^.^._.^.^.^./.^./.`.].XX`.*.T T Y ( @.l.l.y.O. .o.w.r.r.6.S h &     ",
"    z J k.5.8.4.1.1.X.X.+.@.3.l.z.&.T 8 R $._. XOX&X&XXX&XXX&X&X&X&XXX X X_.%.R 8 T &.l.l.q.O.X. .M H o.7.w.r.f.8.h     ",
"  X B 8.j.f.1.x x G X.A g g 3.C.C.,.[ 5 8 U %.|.oX3X3X3X&X3X3X3X3X3X*XXX_.%.Y 9 5 ) z.b.l.@.} N n A M M H 0.j.N.f.S     ",
"    L 8.f.8.K x Z G 2.A N N 3.y.c.l.>.( ( Y Y #.+X+XoX+X+X+XoXoXoXoX+X<.%.Y U U ( #.l.c.q.O.N c M V M m S 6.r.g.8.B     ",
"    x F 5.1.G z Z G 2.X.A A ] #.>.>.,.l.:.( 6 9 #.#.&.#.#.#.&.#.@.&.#.( 9 6 t [ l.,.q.>.@. .} A M D V b Z H o.6.J j     ",
"    1 x S G S G G X.2.2. .A N g } >.c.C.,.] 4 + + + 4 4 % 4 4 4 4 @ 4 @ # 6 ( ,.l.l.+.n N M }  .D D D B m M S A x 1     ",
"    , k B S G S G H X.A A ] N r e ] ,.c.>.:.p v g g g g g N v g g t t c s s ;.>.p.:.} i e n H A D F B B m m m l h <     ",
"    P k S D G G G G H Z A A N f e p n | @.e.q.t.0.3.3.s.t.t.s.t.y.0.:.0.>.p.>.;.C a e e j M  .V D D B V m m Z Z z w     ",
"    , k D J H H G G Z Z M M N e > # # * V p.M.V.M.M.C.S.S.B.B.M.M.h.h.g.m.h.w.C * X X > y b m M D B M M Z S D D z f     ",
"  . , m H X.G G Z A Z m m m j q % . .   u -.s.s.s.3.s.s.s.s.s.s.d.t.r.r.u.p.;.b .   . > w y N Z V S S S S S D D L 1     ",
"    1 m H J G B Z S S Z z f , : # # X * y C B ..H H D X.X. .X.H X.F D D ..B b i # # & > 1 , f l z D D S D G D D L 1     ",
"    1 m G D G S S S S m f < - $ & > > , , > & # ; % > q < < ; ; ; > : * & $ : & , > , , > : < f z S S B S F D D z 1     ",
"    1 z S G F S S S z j , - $ $ $ & > > , , > % .   .   . .   .   .   . X & : & : & : > : o $ 1 j z m S S S F S z 1     ",
"    1 l S G J D Z z h 1 : - - < > & # $ , z m z ,   .     .   .       * j B k q X X o & $ o o : 1 h z m S F S F z d     ",
"    , x B G F G S h > : - o > , w > $ $ w S H m q     . . #   .   . X , z B B h & o o : - o o = 3 > y k B S S S z w O   ",
"    1 z D F F z x f : o - : > , w q > , k m m N ,   . . . . .         : j k z j h 1 2 & - - 2 : 3 & 1 h z L S S x 1 .   ",
"    1 S J G z h 1 2 : : : : > 2 1 f l m m j 1 :       . . + . .       . & 1 x B G z d 3 - 2 2 1 : & > 1 y k C D z d     ",
"    1 S J L x : o : : : : : : 2 1 f Z S k , .     < e m V D F V z e o     . 1 S J G h 3 3 2 P 2 < & & : > y L S z 1     ",
"  O 2 z G z , O O X 3 $ o & o o ; f l L w o   % w D 6.n.D.D.G.D.N.8.D f $   & z G L P o o 3 2 2 : o o X = , x z h : .   ",
"    = , 1 2 =     O o o O O o O o ; < 1 : O   q D 8.Z.K.wXsXsXsX,XF.8.S w     : 1 2 3 o O o 3 = O O     O o : , : o     ",
"      O             O O             O       . x =.h.J.pXhXxXbXxXgXK.N.5.x .                                   O .       ",
"O                   .                       . z 6.n.J.sXxXbXvXbXhX,XN.o.m                                               "
};
