/* XPM */
static char *_743bb3dddba4971e37c9ea775ab184bEoHXdwprYgj7YFIW[] = {
/* columns rows colors chars-per-pixel */
"60 60 140 2 ",
"   c #072100",
".  c #0B2500",
"X  c #0E2900",
"o  c #132D00",
"O  c #163100",
"+  c #1A3501",
"@  c #1E3902",
"#  c #223D05",
"$  c #233E09",
"%  c #254106",
"&  c #26410B",
"*  c #29440D",
"=  c #2D490E",
"-  c #2B4511",
";  c #2E4913",
":  c #2F4919",
">  c #324D15",
",  c #344E1A",
"<  c #355116",
"1  c #3A5717",
"2  c #36511B",
"3  c #3A551D",
"4  c #3D591E",
"5  c #3C5622",
"6  c #3E5A22",
"7  c #415D1F",
"8  c #435F22",
"9  c #425E23",
"0  c #415D22",
"q  c #415925",
"w  c #405B24",
"e  c #405B26",
"r  c #425A26",
"t  c #435B27",
"y  c #415C25",
"u  c #435C25",
"i  c #425E24",
"p  c #435F24",
"a  c #425F25",
"s  c #435F25",
"d  c #415C27",
"f  c #425D26",
"g  c #435E27",
"h  c #455E25",
"j  c #455E27",
"k  c #425E24",
"l  c #425D28",
"z  c #435E29",
"x  c #425D2A",
"c  c #445C28",
"v  c #455D29",
"b  c #445F28",
"n  c #465F28",
"m  c #445F2A",
"M  c #465E2A",
"N  c #475F2B",
"B  c #445F2C",
"V  c #475F2D",
"C  c #445E29",
"Z  c #446023",
"A  c #426024",
"S  c #436125",
"D  c #436026",
"F  c #446025",
"G  c #446026",
"H  c #456126",
"J  c #446127",
"K  c #456127",
"L  c #446226",
"P  c #456327",
"I  c #476326",
"U  c #466227",
"Y  c #446125",
"T  c #486427",
"R  c #486427",
"E  c #456029",
"W  c #476029",
"Q  c #456228",
"!  c #466228",
"~  c #476328",
"^  c #476329",
"/  c #45602B",
"(  c #46612A",
")  c #47622B",
"_  c #466428",
"`  c #476529",
"'  c #46612C",
"]  c #47622D",
"[  c #46612E",
"{  c #466229",
"}  c #496229",
"|  c #48612A",
" . c #49622B",
".. c #4A632A",
"X. c #496528",
"o. c #486429",
"O. c #48642A",
"+. c #49652A",
"@. c #49652B",
"#. c #4B642B",
"$. c #4B672A",
"%. c #4A662B",
"&. c #48602C",
"*. c #49612D",
"=. c #48632C",
"-. c #4A632C",
";. c #48602E",
":. c #49612F",
">. c #48632E",
",. c #4A622E",
"<. c #4B632F",
"1. c #49642D",
"2. c #4B642D",
"3. c #4A662C",
"4. c #4B672C",
"5. c #4B672D",
"6. c #49642F",
"7. c #4A652E",
"8. c #4B662F",
"9. c #4C652C",
"0. c #4D662D",
"q. c #4C652E",
"w. c #4E672E",
"e. c #49642B",
"r. c #4C682E",
"t. c #4D692F",
"y. c #4B682C",
"u. c #4A6530",
"i. c #4C6430",
"p. c #4C6730",
"a. c #4E6730",
"s. c #4E6632",
"d. c #4F6733",
"f. c #4C6532",
"g. c #4D6831",
"h. c #4E6A30",
"j. c #4D6834",
"k. c #506834",
"l. c #506B34",
"z. c #526D3A",
/* pixels */
"0 i i 0 i K K K K Z K I @.T Z K K K @.@.T Z 0 D K D i i i 0 K ! =.b b 3 * @ - 5 6 5 - $ & 5 6 L L L L A 4 A A L L A A 4 ",
"i i i 0 i K Z K K K 0 K T @.K K Z Z K T K K i h i K K K K K K K ' b l 3 $ + - 5 B 5 $ $ - 5 [ [ [ L D A A A L L L L A A ",
"! ! K i 0 h K K K Z 0 K I @.@.K p 0 0 K K K K K K 0 K K ! K K K b ! l 3 $ O & 5 6 5 - O - 6 [ E L L A A L L L L L L A D ",
"h.r.@.K 0 0 0 K 0 K K K } @.T D 0 0 4 7 Z K @.} Z K K K @.@.K i B ! b 2 # o $ 5 j.5 & o @ 3 [ >.L D A D L _ ` L L L L L ",
"k.h.=.! i i i ! D K i K K K K 0 0 7 1 4 0 I $.$.K p Z K @.T K 0 h ! ! 5 & @ & 5 [ 5 : o & 5 E >.L S S S _ ` ` L L ` L ` ",
"l w l i b b b ! K ! ! i 4 3 1 4 p 0 7 4 0 K } @.p p Z K K K Z 0 i K ! 6 , ; , x [ 6 : : , 5 E L L S P S L L L L L T ` ` ",
"& - 2 w =.=.! b ! ' ! i > & ; 4 Z Z p 7 p Z I p K p p K K Z 0 0 i ! ' ! B w x b 6 [ 5 5 5 6 [ x L S S S A S L S L T ` ` ",
"o + * w 8.p.' l ! >.>.4 & + & 1 K T I Z 7 p p 7 p p p p 0 0 0 0 i ! ' =.u.p.u.b 6 6 6 6 B 6 6 [ A S S A 0 7 6 A D L T ` ",
"# & ; 2 6 b ! b w 6 5 , * & > 4 T T T T Z 0 0 0 I I T K 0 0 0 0 p h D @.7.8.=.=.l b ! ' ! l i K L L L A Z 6 D Z A A A A ",
"5 5 2 - * , w b w > & * > 3 6 K @.T $.@.I Z 0 K } } @.! K Z K K K p 0 K ! @.=.=.B ' ' ' ' b ! ! L L L x Z Z L L L A 4 4 ",
"7.' 5 & @ * 5 ' 6 & O $ 4 @.@.@.@.@.y.y.@.K 0 K @.` @.! K K @.K K 0 w 0 i ! ' ! =.=.! b ' ' ! @.T D A L K 0 K @.L 4 3 3 ",
"' ! 6 > * > w b 4 = $ ; 4 @.@.7.@.T K K } I K Z i 4 6 0 K K @.K @.Z 0 0 i i ! ' =.! h b b b ! ! T 6 A L T K Z K A A 1 3 ",
"! l w w 6 6 i i 6 4 4 4 6 i K K K K 0 0 K 7.@.0 < = - 3 i l ! } K T i 0 i i b b B h w w 0 i i i D 6 Z ` y.` Z 0 4 4 4 6 ",
"b 6 i 7.p.' l 6 w ! @.! K i i K K D 0 4 i ! K 6 & @ $ , 6 h ' ` K i K 0 i w w i b b w w 0 0 i i 0 Z K y.@.! 0 4 4 6 Z 0 ",
"w 6 b =.7.@.! i ! K K @.@.! K K i i 0 0 6 6 3 2 * * ; 3 w l ! ! D K h i i i l b ! b b l 0 i 0 0 D T D 4 1 4 0 0 Z D D D ",
"! b b l w h @.@.7.K 0 K @.@.K K h i i K 6 > ; ; 1 3 w w w i l w D K ! ! h b ! =.' =.=.=.K h K K T @.0 > * > 6 @.y.` T D ",
"=.' b w w l =.p.p.b w w ! 7.=.b l l ! b 5 & + & 6 ' 7.b i l w w l i b ' ! B b u.b ' ' 7.7.! D K #.h q * + # q <.w...} ..",
"=.b b w w b } 8.=.! l w w w w i l ' u.B 5 $ + & 6 >.u.b i l b b i w i b =.' x 5 3 6 b 7.@.! K 0 h q , - $ $ q c M M ....",
"} b b b i b b =.=.b w 3 ; - > 6 B ' u.b 3 # + * 6 ' 7.i i l =.7.! i w w ' =.5 : # : w 7.@.@.! 6 , > > > q , : : 7 q <.<.",
"' b b b b b b b b b b 3 & @ * 3 =.' u.l 3 & @ * 6 ! 7.l l b } 8.@.h w i ' ! 3 & O # 3 ! ! @.@.6 * # # q v q $ # $ q <.i.",
"! b B ! b b b b b b b 5 > $ - , 5 6 b b 5 * @ & 3 l =.' ! b ' =.! K i 0 b ! 3 > $ & , 4 6 ' ! 1 # o $ v <.r $ o # 7 v ..",
"b b b b b b B b b w w w 6 3 > - & : w l 3 & + # 3 i ' =.=.=.b h 0 D K 0 l ! i w 5 1 > ; > w h 2 # o $ *.d.c $ o # , v } ",
"l b b b ! =.' b b w w w b ! 3 * @ - 5 w 1 * @ $ 2 w ! =.7.! i i 6 0 ! ! i h I 7.p.i - @ & 3 i 3 # @ , *.k.M $ + # q v } ",
"h b w b b b =.=.b b b i =.=.w > * ; 6 i 6 , - > 3 w ! 7.r.! 0 6 6 i ! ! i i @.r.p.w & o # 3 l 5 > - , &.d.<.q $ $ 7 M v ",
"6 w b b ! =.=.b ' b b b ' b w 5 5 w b b i w 6 6 6 i ! ! 7.! i 6 0 0 K K i 0 ! 8.#.7 # o + q M v q q c *.i.*.q 3 5 r V v ",
"w l b b B =.b b ! b ! b b b l b b B ! b b b b b l l ! ! ! K i 0 0 i K Z i K I @...q $ + # q } ..&.M *.#.i.*.c c r V V V ",
"b b b B b w 5 3 3 h =.' i b b =.=.=.b b b b ' 7.h D K i i i i D K K ! i K K K K n 0 - $ > q ..#.#.#.&.&.N N &.&.:.:.:.:.",
"! b b =.b 4 ; $ - 5 b ! b w b b } b b l b ! b b ! h i 0 6 0 i ! ! ! @.! K K p 0 0 0 7 7 q h h h c c c v c N N &.:.:.:.:.",
"=.! b ! h 2 * + * 2 b b l w l b ' b b b ! b b i i K i 0 6 0 K @.' ! ! K K K K 0 7 0 n } } h h 7 q c v v N N N N :.:.:.f.",
"=.=.b w 3 , * $ > 5 b b l i b b ' ! b b l l i K D h i i K K @.@.l 6 3 5 0 K K K 0 n I $.h h h h c c v v c c q , q :.d.d.",
"=.' w > * - , 3 w w b b b b b =.! ! b b l i i i i i 0 K @.@.@.@.6 > & ; 4 K K K I K h K q h h h v v V :.;.q - $ : r s.d.",
"=.=.4 & + & 3 ! =.b =.! b b } b B ' =.=.! h i i i i K ` @.@.7.@.6 & + # 3 h } I I K p p q h h q M M :.d.d.q - o $ q :.d.",
"=.=.5 # X # 4 7.y.7.K K K K K K K i ! ! ! i i i i b w 6 w b ! =.6 $ o $ 3 D 7.@.K K K 0 0 p Z K b =.i.V :.M , $ : , 5 x ",
"=.b 3 + X + 3 >.7.` ` K K K K 0 i i i i K K ! ! ' ! 6 , ; 2 w b 6 & + - 3 h y.7.@.T K 0 Z K K @.} V M M t M x 5 q 5 : : ",
"7.! 3 $ O # 1 @.7.@.T T K K 0 0 i 0 0 i i K ! ! =.b 3 * + * 5 i 5 - @ - 5 K @.T K K i K K K K @.' b 5 6 6 x f.j.V : o . ",
"! b w > * > w K K K K D K K Z K D i i 0 i K ! ! =.l 3 # o # 3 i 5 & + * 6 ` ` 4 1 1 6 i I T K K ' ' B 6 6 x f.f.r : X   ",
"h ! K 0 w 0 K Z 0 7 4 7 Z K T I ! ! ! K K D K K } i 3 # O # 5 l 5 # o & 4 7.Z > % = 1 0 K Z K K ! ' ' i l 6 [ [ 5 $ X X ",
"i i K T @.$.@.T 0 w 4 7 0 T T T @.! ! K i K D h >.! 3 & + - 6 l 5 & O & 4 ` 0 = @ * < 0 0 p 0 K ! ' ' b l l 6 l 5 : $ + ",
"0 0 Z T $.$.T T Z 7 4 4 Z T I K K h K K K K i i K D 4 > ; 2 i ! 6 2 - < 6 K 6 > * < 4 0 D Z p K B ' ! l [ l [ 6 , : $ o ",
"0 0 Z T @.T T T K 0 4 7 Z T Z 7 4 0 0 K K i K 0 0 i 0 4 6 i b ' E 6 4 6 0 0 0 4 4 4 K T K K h K ! ! ' ! ! >.' 6 , $ O o ",
"7 8 8 8 Z Z T $.I p 7 7 I X.p 7 1 4 0 0 h i 0 K 0 i i ! ` } ` @.@.@.7.! 0 7 p Z T @.T @.T T K 0 A x A L [ _ E E 4 = % % ",
"8 8 8 8 Z Z T @.I I Z p I Z p 7 4 0 K @.@.K i D i K ! ! ! ! ! ! @.} @.I p 0 p K @.T K K K K K K e L A L L L E E A 1 = = ",
"8 Z 8 8 7 7 Z Z I I I I 7 7 7 p Z K y.@.@.T K i ! ! K K K i D i i K K Z p p K K K K 0 0 0 i K ! A A A A A A E D A 4 1 7 ",
"Z Z 8 7 7 7 7 7 7 I I I p 7 7 I @.@.y.@.@.K K K ! ! ! ! i i 0 i 0 0 0 p p p p p Z Z 0 0 0 K K ! A A A A A 6 A 6 S S P R ",
"Z Z 7 Z Z p 7 Z Z Z K K p p p I @.K Z 7 0 i K K ! ! K i 6 0 0 0 0 0 Z D K Z p 7 7 0 0 Z i K K K _ L L A 4 A A A S _ _ ` ",
"Z 7 Z Z Z I Z Z Z Z K Z I I } } @.7 > % * 1 Z @.! ! K i D A D 0 h K K K I K Z Z Z Z Z K K K K K S P L A A A 4 A S S ` ` ",
"R 7 Z R K Z 0 4 Z Z K K ! T } I 0 < % @ % < 0 @.i ! i ! D D A A K T @.T I Z Z Z p Z K K K K h D P P P A A A A 1 A A _ _ ",
"Z R Z R K 0 4 1 4 6 D @.@.} K 0 4 > % % = 4 K K K i ! i D D x A K K @.T Z Z 7 Z Z Z K K K K D K S P P A A 4 A 1 A S _ _ ",
"R R I I Z 4 ; % - 5 [ p.` L 6 < = = < < 4 7 S L A A A S P ` x A ! @.@.0 7 1 7 T T $.K 0 i l i ! D D L L S S 7 7 R 7 R 7 ",
"R 7 I R 7 < & + - 5 B 6.>.E 4 % @ * 3 L _ L A 7 7 A A S ` [ x 5 w K T 0 4 1 4 Z @.@.K 0 i b h ! L D S S S 7 A S 7 R 7 R ",
"7 Z Z Z E 5 : & - 5 5 6 E L < @ o % 3 ` $.R L Z A S P 6.u.x 5 2 3 i ! Z 7 7 7 Z @.K i w i ' =.! T A 6 D Z Z A L 7 7 L 7 ",
"7 7 Z R >.' [ 6 5 : : , 6 6 < % O % 3 L R R Z L P P _ _ L 6 , - > 6 ! @.R R Z Z K D l l b =.p.} ` A D L R Z Z Z L L 7 R ",
"7 0 0 D >.>.u.u.5 : + - 3 4 1 * @ % 1 R ` R 7 7 S P P ` x 3 & + * 1 I $.$.R R Z 0 0 i ! E >.>.L ` 7 S S A 7 A R R 7 R 7 ",
"7 0 0 K ! >.u.[ 5 $ o @ 2 6 4 > = < 7 R ` R A A A A P ` [ 2 $ X & < R X.X.R Z Z 4 Z ! ' ' 6 6 6 A S S S A A 7 A 7 7 7 R ",
"Z Z D ` ' [ B B 5 $ + & 3 i K 1 1 7 A Z S S A A 6 A L ` [ 2 $ X % < X.X.Z Z 7 7 4 ` >.u.' < - - 1 L R S S S A A 7 R Z Z ",
"K I ! ! E B 6 6 , & @ - 3 ! @.Z A P R R S 7 7 7 6 A x x x 5 & O & 4 X.Z 7 7 7 7 6 >.h.u.l - O % 1 A R R A Z Z A 7 S S Z ",
"I I I K b l l x 5 , : , 6 ! 7.@.R R A 8 A R A A 7 7 S P L 5 2 : 2 6 ! K 7 7 8 7 K 0 i 6 6 : - : 7 A S S 7 A A S S 7 L Z ",
"Z Z Z K b b B B 5 5 2 5 i ` @.K A A 7 Z A R A A 7 A L L B x 6 5 6 D @.T R R R 8 T 4 , - : , 5 6 A A S S A A A A 7 S Z Z ",
"Z Z K Z b b B ' ' B l E ! 7.! D Z Z Z Z A R L R e A e L B u.u.u.7.@.@.K T R @.T ! 3 % o - 5 j.p._ S S S L A A S Z 7 Z Z ",
"Z Z p p b b ' =.' [ ' ' 7.7.! D 7 7 A 7 A R _ R A A L x _ u.u.u.h.$.@.Z T T T T ! 3 @   @ 6 z.j.` S S S 7 L L S Z S S Z "
};
