/* XPM */
static char *a22bb8fba2c24047fb5648e820315d25k4jCWWztg99UMXrw[] = {
/* columns rows colors chars-per-pixel */
"60 60 251 2 ",
"   c #010104",
".  c #0A0101",
"X  c #01020B",
"o  c #0B060A",
"O  c #140202",
"+  c #000213",
"@  c #00021B",
"#  c #060B18",
"$  c #0C131C",
"%  c #18181B",
"&  c #000423",
"*  c #010928",
"=  c #0A1427",
"-  c #181B26",
";  c #010D32",
":  c #081839",
">  c #161D35",
",  c #231E30",
"<  c #1A2229",
"1  c #1A243A",
"2  c #28282A",
"3  c #242A3B",
"4  c #2A2D3A",
"5  c #272934",
"6  c #2A323D",
"7  c #363638",
"8  c #312F2F",
"9  c #301B1B",
"0  c #4A3938",
"q  c #56433F",
"w  c #071C47",
"e  c #171844",
"r  c #0C2249",
"t  c #192848",
"y  c #1B2C54",
"u  c #1B2F54",
"i  c #252E49",
"p  c #293349",
"a  c #363B46",
"s  c #263556",
"d  c #353C53",
"f  c #212F51",
"g  c #1D3661",
"h  c #263965",
"j  c #2F3C6F",
"k  c #443E4B",
"l  c #3B424E",
"z  c #3C4353",
"x  c #3A445B",
"c  c #2F405C",
"v  c #27416A",
"b  c #364767",
"n  c #374B7A",
"m  c #3B547C",
"M  c #2C4674",
"N  c #434246",
"B  c #48484A",
"V  c #54494B",
"C  c #434C5B",
"Z  c #484A57",
"A  c #495158",
"S  c #5B5B5B",
"D  c #555458",
"F  c #544F54",
"G  c #675959",
"H  c #6B5452",
"J  c #64625D",
"K  c #444A64",
"L  c #4A5469",
"P  c #555B69",
"I  c #495675",
"U  c #545A76",
"Y  c #414F7C",
"T  c #675C69",
"R  c #5B6274",
"E  c #57637A",
"W  c #5D626B",
"Q  c #666768",
"!  c #6D6D73",
"~  c #646878",
"^  c #6E7277",
"/  c #737475",
"(  c #74757A",
")  c #7B7B7D",
"_  c #777778",
"`  c #77676F",
"'  c #8A6B65",
"]  c #86736E",
"[  c #867878",
"{  c #937876",
"}  c #8B6F74",
"|  c #866A5E",
" . c #7E837F",
".. c #8E827C",
"X. c #A6857D",
"o. c #364D87",
"O. c #3B5889",
"+. c #3E5A99",
"@. c #435788",
"#. c #435A94",
"$. c #555883",
"%. c #4A6489",
"&. c #586787",
"*. c #486797",
"=. c #566A98",
"-. c #5C7299",
";. c #666C86",
":. c #69738A",
">. c #787985",
",. c #676C96",
"<. c #687596",
"1. c #747997",
"2. c #756889",
"3. c #4968A4",
"4. c #556CA8",
"5. c #4D72A7",
"6. c #5777AA",
"7. c #4C6DB3",
"8. c #576EB4",
"9. c #5473B4",
"0. c #5778B7",
"q. c #4C71B9",
"w. c #6777A7",
"e. c #6279B7",
"r. c #6B76A5",
"t. c #5776C2",
"y. c #667FC2",
"u. c #857D84",
"i. c #957E84",
"p. c #7C838B",
"a. c #7A8296",
"s. c #7887A6",
"d. c #6B84B9",
"f. c #7586B8",
"g. c #6F8AB1",
"h. c #5E81B7",
"j. c #768BC3",
"k. c #758DC8",
"l. c #83858B",
"z. c #878889",
"x. c #8B8C92",
"c. c #858999",
"v. c #968A93",
"b. c #8D9398",
"n. c #949394",
"m. c #9B9B9C",
"M. c #96979B",
"N. c #9B8889",
"B. c #A78A86",
"V. c #BB988B",
"C. c #A89998",
"Z. c #B59C98",
"A. c #A9928F",
"S. c #AAA19D",
"D. c #8895AA",
"F. c #9D9EA2",
"G. c #9498A3",
"H. c #959BB7",
"J. c #868FAF",
"K. c #AF9DA3",
"L. c #9CA1A6",
"P. c #96A3B8",
"I. c #85A0BB",
"U. c #A3A3A5",
"Y. c #A7A7AA",
"T. c #BBA4A7",
"R. c #ACADB3",
"E. c #A8A9BB",
"W. c #B4ADB3",
"Q. c #AEB2B7",
"!. c #B4B3B3",
"~. c #B3B4BA",
"^. c #BCBDBC",
"/. c #B9B7BB",
"(. c #B0B1AD",
"). c #CA9C89",
"_. c #CB9D8D",
"`. c #C7A498",
"'. c #D3A897",
"]. c #D3A48C",
"[. c #E3B299",
"{. c #C5BBBB",
"}. c #CFB4AD",
"|. c #E4B5A6",
" X c #BFC1BE",
".X c #CDC4BE",
"XX c #E9C4B6",
"oX c #F0C7B6",
"OX c #8797C9",
"+X c #879AD2",
"@X c #93A7D1",
"#X c #BCBBC1",
"$X c #B6BBC7",
"%X c #ACB6CE",
"&X c #A4BAE9",
"*X c #C4BEC5",
"=X c #D5BEC6",
"-X c #BDC2C4",
";X c #BDC8D7",
":X c #B3C7ED",
">X c #C3C2C3",
",X c #C4C5CA",
"<X c #C6CACD",
"1X c #CBCBCC",
"2X c #CAC7C5",
"3X c #D8CAC5",
"4X c #C8CBD4",
"5X c #CDD1D7",
"6X c #D1D2D4",
"7X c #D2D6DB",
"8X c #DBDCDC",
"9X c #D9D7D8",
"0X c #D6D0CD",
"qX c #E5D7D8",
"wX c #F7DDD4",
"eX c #EFD3CA",
"rX c #F8E2DB",
"tX c #E3E2DE",
"yX c #C6D4E7",
"uX c #DBDEE3",
"iX c #D4D8E3",
"pX c #C6D9F7",
"aX c #CBD6ED",
"sX c #E5DBE6",
"dX c #DCE3E9",
"fX c #DAE7FA",
"gX c #DDF3FF",
"hX c #E3E3E3",
"jX c #E3E5EA",
"kX c #ECEBEC",
"lX c #E6E7E9",
"zX c #F1EBED",
"xX c #EBECF3",
"cX c #E6EBF8",
"vX c #F2EEF3",
"bX c #ECFAFF",
"nX c #EAF2FA",
"mX c #F3F4F4",
"MX c #FAF5F5",
"NX c #F5FAF5",
"BX c #FBFBF6",
"VX c #F3F4FA",
"CX c #FCF5FB",
"ZX c #F5FCFE",
"AX c #FEFAFE",
"SX c #FAFEFE",
"DX c #FFFFFF",
"FX c #FEFDFE",
"GX c #FDFDFD",
"HX c #EFF1EC",
"JX c #DFE2DB",
/* pixels */
"AXMXAXGXGXAXGXGXBXBXBXNXNXNXZXZXZXBXGXGXGXGXGXSXAXAXGXGXAXAXAXCXAXAXAXAXAXAXGXGXBXBXBXBXGXGXGXGXGXGXCXGXBXGXGXBXGXGXGXBX",
"GXGXAXAXGXAXBXMXNXNXBXBXSXNXNXZXGXSXSXGXGXGXSXGXGXVXCXCXCXAXCXAXAXVXxXGXZXAXGXGXGXBXGXGXGXGXGXGXGXGXGXGXBXBXMXMXMXCXBXAX",
"AXGXGXGXGXlX1X/.^..XJXNXSXZXSXZXSXGXGXSXGXGXGXGXGXGXAXsX*X/.*X*X-X#X5XhXAXGXAXGXGXAXGXGXAXAXGXGXGXGXGXkX0X.X^..X0XzXMXBX",
"GXBXGXGXBX.X/ 2 8  .(.HXSXSXSXNXZXSXSXSXGXGXGXGXGXGXmX!.Q - F D D F n.5XGXAXGXAXGXGXGXGXAXAXAXAXGXGXGX8Xn.7 8 G m.0XMXGX",
"GXGXGXSXlX!.Q     . z.1XNXSXZXZXZXZXSXSXSXVXmXxXvXCXdXY.D   7 7     7 R.cXVXxXxXVXAXGXGXGXGXGXGXZXNXdX.X..      Q {.MXAX",
"SXZXdX4XW.!..Xn.7   o .. XhXNXSXSXSXSXSXSXxX5XR.R.~.$XQ./.~.-X~.p.     .R.-XR.R.6XxXSXSXGXGXGXAXHX0XY.S.(.(.Q   D {.AXAX",
"SXVX,X( Q #XkXhXn..   . Q ^.mXSXSXZXZXZXZX7Xl.5   5 l.4XnXSXZXnX-X^     B l % A Y.jXSXGXGXAXGXAX8Xz.8 n.JXHX!.0 S .XAXGX",
"ZXZX/.-   {.AXGX1X..o   . z.6XjXdXdXdXnXdX%XE + + + :.4XZXZXZXZXiXp.X #   X     >.-XjXcXcXdXjXjX,Xz.Q (.BXBX.XB G >XCXGX",
"ZXZX^.l 8 /.AXAXvX3Xv.9   o u.m.b.L.L.P.I.s.I 1 & ; s.dXbXZXZXZXyXJ.x x L 1 + + b p.L.G.b.b.p.z.M.Q.1XhXGXGX.XB D  XMXGX",
"ZXZX,XS k W.CXAXAXCX1Xu.X   X + = - = # < M E h.%.m g.yXbXbXNXbXyXI.&.=.<.%.b * # = = $ #       z.6XGXGXBXBX(.0 J .XMXGX",
"SXZX,XW 5 Y.qXCXAXAXzX*Xb.c.M.a.E & * * = v O.h.=.%.j.yXbXZXZXbXaXOX=.w.h.6.%.j r ; ; E p.s.p.p.Q.lXGXGXHXJXm.  V {.AXGX",
"ZXZX,XQ o u.{.qXCXAXCXxXiXcXcXaX@X&.g m O.*.h.h.%.%.I.pXbXZXZXbXpXOX#.#.w.6.3.3.o.M *.%XpXbXdXiXkXGXGXNXJX X_   B {.AXGX",
"ZXSX<X!   V v.*XsXCXAXGXGXSXNXgX:Xf.#.=.h.h.5.q.5.*.k.:XgXbXZXbX:X+X#.#.8.t.t.q.q.+.d.:XcXZXZXZXSXVXBXhX Xm.J 8 _ 1XAXGX",
"ZXNX<X!     G v.*XsXVXAXZXZXfX:X@Xg.*.6.h.5.h.5.*.5.k.:XpXgXgXpX:Xj.+.7.0.q.t.t.7.5.d.@X:XcXZXSXSXZXdX/. .J  .U.2XHXGXGX",
"ZXZX<X/   o   Q v.#XuXAXZXfX%Xg.h.5.6.6.5.h.5.5.5.*.d.@X&X:X:X:X@Xj.#.3.q.q.q.q.0.5.6.w.r.%XfXAXZXlX Xl.2 2 m.JXSXGXGXGX",
"ZXNX<X/     2 B ` b.$XcXnX:Xs.g b *.5.*.5.5.5.h.5.5.0.k.+X@X@X+Xk.e.4.9.8.8.q.7.3.5.3.m g s.4XVXnX$Xb.! B  .2XBXGXGXGXGX",
"ZXSX-XS   8 z.>.T P G.yXaX%Xs.b b O.m O.O.*.3.5.h.5.h.g.d.f.k.k.d.e.6.9.0.8.+.+.@.o.$.j n r.$XaX4Xx.K ^ Y.4XkXGXGXGXGXGX",
"ZXNX-XS   ` F.F.W $ ~ P.%X@Xs.%.b v g g v O.3.h.h.h.h.h.6.6.0.w.e.6.6.e.e.8.#.j h y j @.&.r.@X$XH.L + M.dXZXGXSXGXGXGXGX",
"GXBX8XY.) z.F.v.! D W c.D.s.<.%.b f = & ; h %.*.*.h.%.*.*.O.*.#.@.4.*.4.4.@.n : * & f Y ,.r.r.J.c.;.a.$XVXGXGXGXGXGXGXGX",
"GXSXHXhX1XM.P B >.M.b.:.R &.<.&.L 1 @ @ & = g m m m m M n n n n @.n @.m @.b ; @ @ @ , Y ,.r.$.U u.%X5XcXAXSXGXmXAXGXGXGX",
"SXGXGXGXkX!.V 8 x.R.G.P + x &.:.L = @ @ : > s f t y f s s s g s y y f s s t > - X + = L ,.,.e & c.7XVXSXSXGXAXSXSXGXGXGX",
"GXSXGXGXGX9XR.z.v.x.~ 5 + d :.;.x # k 2.c.:.p @ @ + + @ & & & * @ & & + + a ;.u._ k + K ,.;.* @ 1.iXGXZXGXZXSXSXGXGXGXGX",
"GXGXGXGXGXCXzX1Xb.7   X # L :.:.x + ~ E.*XE.L X X o X X X X X + X + X   + Z Y.*XY.Q   a :.2.= + c.iXSXSXSXGXGXGXGXGXGXGX",
"GXGXGXAXGXAXAXkXW.B   + $ L ;.~ 3 # >.,XcX*Xu.i 2 k V V B V B N B N N 2 4 u.*XqX{._   5 ;.U $ X >.iXZXSXSXSXGXGXGXGXGXGX",
"AXGXAXAXGXGXGXBX8XR.l.A X 4 P L @ + 2.*XsXsX#XU.K.K.K.Z.C.Z.C.C.S.m.S.m.U. XqXzX.X[   X L A   X l.7XSXSXSXSXGXSXCXSXGXGX",
"GXGXAXBXAXGXAXAXGXkX,X>.  + d p X X u.#XsXsX9XqXqXeXeXeX0X3X3X3X.X0X0X0X0XJXzXsX{.)   X 6 a     x.7XZXSXGXSXBXNXBXGXGXGX",
"GXBXAXAXAXGXGXGXGXGX7Xx.X X - ,     } T.=XqX0XqXqXrXzXwXrXwXwXqXwXrXeXJXqX9XqXqX!.]     < $     p.7XZXSXSXBXBXNXCXSXGXGX",
"GXGXAXBXGXGXGXGXGXZX8X( + + = 3     T K.=X=XZ.Z.}.wXwXwXrXwXwXwXwXwX0X.XC.C.}..XZ.J     6 $     ( 5XSXSXSXSXSXCXBXGXGXGX",
"BXCXGXGXGXGXGXGXGXGX7Xp.X   > 4   . G Z.}.v.k q A.XXwXwXeXeXoXwXwXwX3XV.0 0 i.K.A.S .   6 - o   l.5XSXSXGXSXBXBXGXGXGXGX",
"SXGXGXGXGXGXGXGXSXSXjX$Xl.W d +   . G C.T.i.O O } |.oXoXoXoXoXoXXXoX.X] O O i.C.B.H .   X d ~ x.-XjXSXGXGXSXSXGXGXGXGXGX",
"BXGXGXGXGXSXSXSXSXSXVXxXiX%XP X   . T A.T.v.O O ' '.[.[.[.].[.[.|.}._.' O 9 B.}.Z.J .   X R R.uXVXZXSXZXZXBXBXGXGXGXGXGX",
"GXGXGXGXSXCXNXZXSXZXZXZXnX%X;.+ X X G v.K.N.0 0 ' `.].].].].].].].`.).| 9 H A.`.A.G   X + ^ ;XZXGXZXSXNXZXSXBXGXGXGXGXGX",
"GXGXGXGXBXGXBXSXSXZXbXdX;XI.:.= X X k ` i.[ } { B._._._._.)._._._.'._.i.{ ] ..X./ q o + @ 2.E.5XiX,X,XuXxXGXGXGXGXGXGXBX",
"GXSXGXBXSXBXSXSXSXSXcXP.E I %.E d $ + % V } C.`.`.'.'.`._._.].[.].].'._.Z.B.] V 2 . @ k U ~ ;.2.>.R :.~.lXGXGXGXGXGXAXBX",
"SXGXGXBXBXBXSXZXSXnX;X:.@ 1 -.:.P < X   X ` B.`.T.V.V.)._._._._.Z.V.Z.T.T.C.G .   o , I 1.1.K @ +   X M.uXAXGXGXGXBXBXBX",
"GXGXGXBXBXSXBXkX7X$Xb.U 1 E g.s.E > #     F } [ { ' ' { X.X.i.i.{ } ' } [ ` B   .   1 2.u.J.,.d # @   G.uXGXGXAXAXAXBXAX",
"BXBXBXGXBXGXBX8XL.P 6 L &.s.@XI.:.1 X - a 7 7 8 % % k H } i.i.} G 7 % , 2 8 7 8 - X > 2.OX@Xi.r.C   $ F.jXGXAXSXAXGXGXGX",
"BXGXGXBXBXGXSX9Xb.X X b <.s.s.s.E 3 + i d 1 = = , , k 2.2.2.2.$.U k > > > - 4 a 5   i ;.J.u.1.,.z   - F.lXGXGXGXBXAXGXGX",
"GXGXBXGXGXGXGXuXb.X X P a.<.:.I b t > > s x I U 2.r.1.e.2.$.,.u.,.r.r.,.&.U K p 3 > i k U U U d -   X Y.xXGXSXGXAXBXGXGX",
"AXAXAXGXBXGXGXlXL.$ # W ;.E i * ; f t t f Y &.w.J.+XOXu.4.,.e.e.y.+X+XOXe.,.Y i > i 3 4 = # + #     % L.lXSXGXBXGXGXGXGX",
"AXAXCXAXAXGXAXlXU.% X l C d + + # u u : t b @.<.e.OX+Xy.e.8.8.0.k.k.k.f.w.=.b 1 & - 4 - < % < 2 < o 7 z. XJXHXNXBXGXGXBX",
"AXAXAXAXAXAXGXhXY.<     X X + + 1 p f ; * r v O.w.e.y.y.e.t.t.t.t.j.j.4.@.h t & @ @ < 6 A A A l l N J Q  .L..XHXGXGXBXGX",
"AXAXAXCXAXGXGXlXS.%   2 B 6 < - 3 p p : : : r g o.#.4.4.8.e.7.3.7.4.3.@.g w : : * @ = Z P W ! ^  .Q J 8   8 (.JXGXGXGXGX",
"AXAXAXCXAXGXAXkXn.  7 F.~.M.~ z 3 1 p x L c : : u v o.#.#.#.o.o.o.#.o.g : w v Y d > & a A ^ p.b.z. .Q %   % S.HXGXBXGXGX",
"AXAXGXAXAXGXGXkXx.  ^ 7XbX7XG.C 3 $ p E ;.U i & ; r y r r r w w w y r & & u U <.E p + 7 S ( M.Y.L.z.S 2   B (.mXGXGXGXGX",
"GXGXAXGXSXZXmX6XF.Q R.xXSXiXb.C = # 3 P ~ &.d > & & & * : r r r ; & & * 1 b &.&.U p + 6 A ^ b.Y.m...J 8   V !.HXGXGXGXGX",
"SXGXAXGXZX9XU.L.~.5X7XfXiX$XW + X + 3 x R E U I d & & s I I I I s & & d I U &.I b 1 # l S / p. .p./ Q %   2 !.kXGXGXGXGX",
"SXGXSXSXNXQ.N ! 4XZXZX5XQ.p.6 X + X - 5 d L ;.;.K > e U ;.<.:.&.U e > L :.,.U d = + = B Q Q A l N S J 8   7 W.xXGXGXGXGX",
"GXSXmXkX4XU./ M.8XZXdXQ.p.>.c.p.P - + + > C U R K & i E s.s.J.s.&.p * K ~ ;.C = + + $ a F N -   . % B S Q m.2XNXGXGXGXGX",
"GXAX9XF.l.~.5XJXuX7XR.Q a L.iXuXY.N   X % 4 z z > + d <.D.I.I.D.:.d + 1 C x 4 & + # X X   X .     .   _ !.JXHXNXGXGXGXGX",
"GXSX^.S N (.mXHX6XY._ # N ~.ZXVX$XB   X X X + + + + z :.D.P.H.s.1.C + + + + + + X + X $ % - % -     2 U.hXCXGXGXGXGXGXGX",
"GXGXuXY.x.~.5X<Xm._ ! x.F.,XuX4Xm.a   X X X + + # # l E 1.a.a.p.W a @ + + + + X +   2 ! M.U.C.M.n.x.Y..XNXGXGXGXGXGXGXGX",
"GXSXCXmX1X!. .7     z.6XhX4XF./ F -     X % < 6 6 6 l l z C K A z a 4 4 5 5 -     X N L.9XkXhX9X9XtXhXHXmXGXGXGXGXGXGXGX",
"AXGXGXGXNX>XJ     l (.kXGX5XD       X X X $ 2 6 6 l 5 # X X X X + 5 6 p 6 5 $   X   B /.vXGXGXBXSXGXGXGXGXGXGXGXGXGXGXGX",
"GXGXAXGXGX8XW.m.U.(.8XGXGX,XN                     X X X X X   X   X X               % !.mXGXGXGXAXGXGXGXGXGXAXGXGXGXGXGX",
"GXGXGXGXGXMXvXHXkXmXCXGXmX>XF                   X               X   X                 Y.mXGXGXBXGXGXSXCXGXSXGXGXAXGXGXGX",
"GXGXGXGXGXGXGXGXGXGXGXGXNX1Xn.W Q ^ _ _ ( ( ( _ ( ^ ^ ( ( _ _ ( _ / ^ / _ _ / / Q J p..XHXGXGXGXGXGXCXSXGXGXGXGXGXGXGXGX",
"GXGXGXGXGXGXGXGXGXGXGXGXCXlX6X.X,X,X<X<X<X4X4X<X<X<X,X1X<X4X4X1X<X,X,X,X<X1X<X<X1X2X1XJXmXGXGXGXGXGXBXGXGXGXGXGXGXGXGXGX",
"GXGXGXGXGXGXGXGXGXGXGXGXGXBXSXCXVXZXAXAXAXAXZXAXAXZXCXVXAXSXAXZXVXVXmXNXSXCXCXSXBXBXSXBXMXGXGXGXGXGXGXGXGXGXGXGXGXGXGXGX",
"GXGXGXGXGXGXGXGXGXGXGXGXGXGXGXGXGXGXSXSXGXGXGXGXAXGXAXGXGXGXGXGXGXGXGXGXGXGXGXGXGXGXGXGXBXGXGXBXGXGXGXGXGXGXGXGXGXGXGXGX"
};
