/* XPM */
static char *_3b62d40f4954c55df05a7fd55a378879d91sXxr9A9TvpMq[] = {
/* columns rows colors chars-per-pixel */
"60 60 225 2 ",
"   c #010001",
".  c #000D00",
"X  c #090609",
"o  c #1C1A1A",
"O  c #201F1D",
"+  c #143000",
"@  c #22211F",
"#  c #2B3D16",
"$  c #201E21",
"%  c #252423",
"&  c #2D2B2C",
"*  c #292726",
"=  c #3C3B3C",
"-  c #373634",
";  c #2E4214",
":  c #335015",
">  c #3D4F28",
",  c #3C5126",
"<  c #42522E",
"1  c #485733",
"2  c #40403E",
"3  c #456026",
"4  c #567736",
"5  c #4E6736",
"6  c #434344",
"7  c #4A4A4A",
"8  c #585E4C",
"9  c #565555",
"0  c #5A5A5A",
"q  c #4F504B",
"w  c #5E6E48",
"e  c #5B7841",
"r  c #62655D",
"t  c #677355",
"y  c #66784D",
"u  c #656565",
"i  c #656867",
"p  c #656669",
"a  c #696768",
"s  c #6A696B",
"d  c #686765",
"f  c #71746B",
"g  c #747475",
"h  c #767678",
"j  c #7A7A7B",
"k  c #797779",
"l  c #6A7360",
"z  c #69894C",
"x  c #6E8257",
"c  c #79985B",
"v  c #7BA05D",
"b  c #798867",
"n  c #7C9568",
"m  c #7F8873",
"M  c #7EA362",
"N  c #81A55F",
"B  c #829A6C",
"V  c #8B997B",
"C  c #919F7D",
"Z  c #818F6C",
"A  c #83A764",
"S  c #85AB6C",
"D  c #8BAD6B",
"F  c #84A66A",
"G  c #8DB26B",
"H  c #8AB067",
"J  c #92B66D",
"K  c #89AD72",
"L  c #8AA675",
"P  c #92A47C",
"I  c #92AC7C",
"U  c #98AB7D",
"Y  c #8EB274",
"T  c #92B573",
"R  c #96BB74",
"E  c #93B57B",
"W  c #9BBD7A",
"Q  c #99B87A",
"!  c #9DC27A",
"~  c #A0C17E",
"^  c #898887",
"/  c #92928E",
"(  c #939C85",
")  c #949394",
"_  c #999996",
"`  c #979699",
"'  c #99979A",
"]  c #9A9A9C",
"[  c #989797",
"{  c #918F92",
"}  c #9CAE8A",
"|  c #99A986",
" . c #9AB086",
".. c #9FA29E",
"X. c #A2BE84",
"o. c #A2BA8B",
"O. c #A1A29F",
"+. c #A4AC95",
"@. c #A4B594",
"#. c #AAB898",
"$. c #A1A78D",
"%. c #9FA3A0",
"&. c #A5A5A3",
"*. c #A6A9A6",
"=. c #A9A9A6",
"-. c #A6A6A9",
";. c #A7AAAA",
":. c #ACACAC",
">. c #A9A7A8",
",. c #B0AFAD",
"<. c #ADB2AA",
"1. c #B1B1AE",
"2. c #B4BAA7",
"3. c #ADADB1",
"4. c #B1AFB1",
"5. c #AEB2B2",
"6. c #B3B3B3",
"7. c #BDBBBB",
"8. c #B7B6B7",
"9. c #A2C383",
"0. c #A9C88C",
"q. c #A6C192",
"w. c #A9C692",
"e. c #ADC39B",
"r. c #ABCC91",
"t. c #B4C999",
"y. c #BBD59C",
"u. c #B7D097",
"i. c #B9C5A8",
"p. c #BDDCA3",
"a. c #BEC2BC",
"s. c #BECAB2",
"d. c #C4DDA5",
"f. c #C4DBAD",
"g. c #C7D9AF",
"h. c #C3C5BF",
"j. c #C6CDB5",
"k. c #C6DCB3",
"l. c #C9DCB5",
"z. c #CDD3BD",
"x. c #CCDCBB",
"c. c #C5D4B7",
"v. c #D0DBBE",
"b. c #D1D7BD",
"n. c #C0C6AC",
"m. c #C6E2AD",
"M. c #CAE3B3",
"N. c #C6E0B0",
"B. c #D5E3BC",
"V. c #D4E9B7",
"C. c #D9F4BF",
"Z. c #BEBEC0",
"A. c #C1BFC1",
"S. c #BFC4C0",
"D. c #C5C5C2",
"F. c #C6CAC4",
"G. c #C9C9C6",
"H. c #CECDCA",
"J. c #C8C8C5",
"K. c #D0CFCB",
"L. c #C9D1C9",
"P. c #CEDDC2",
"I. c #D3DBC3",
"U. c #D4D9C9",
"Y. c #D6D6D4",
"T. c #D8DCD6",
"R. c #D7DAD9",
"E. c #DCDDDC",
"W. c #D8D7DC",
"Q. c #E0DFDB",
"!. c #DDE4CD",
"~. c #DAE3C4",
"^. c #DCF3C5",
"/. c #DEE1DB",
"(. c #DEE6D5",
"). c #E1E6CF",
"_. c #E1F5C6",
"`. c #E3F5CD",
"'. c #E5FBCD",
"]. c #E1F9C7",
"[. c #E4EBD4",
"{. c #E2E3DD",
"}. c #E3EDDC",
"|. c #E0E7D7",
" X c #E4F3D3",
".X c #EEFDD4",
"XX c #EDF4DC",
"oX c #EFFEDC",
"OX c #E7F7D6",
"+X c #F2FEDC",
"@X c #F0FCD6",
"#X c #DDDEE1",
"$X c #E1DFE2",
"%X c #DCE0E1",
"&X c #E3E3E2",
"*X c #EBEAEB",
"=X c #E5EBE3",
"-X c #EBF4E1",
";X c #EEF6E9",
":X c #EFFAE5",
">X c #F2F5E5",
",X c #F5FDE4",
"<X c #FAFEE5",
"1X c #F2F5EC",
"2X c #F5FEEB",
"3X c #FBFEEC",
"4X c #F6F6F6",
"5X c #F5F5F2",
"6X c #F9F6F6",
"7X c #F6FBF2",
"8X c #F9FAF5",
"9X c #FAFDF6",
"0X c #FDFEF4",
"qX c #F9F7F9",
"wX c #FAFAFA",
"eX c #FFFFFB",
"rX c #FDFEF9",
"tX c #FDFDFD",
"yX c #FFFFFD",
"uX c #FEFEFC",
"iX c white",
"pX c #FFFEFF",
"aX c #FEFDFE",
"sX c #FEFDFC",
"dX c #F7FAF9",
/* pixels */
"eXeX0XK./ @                                                                                               . O / K.5XeX6X",
"eXeX1XH.{ *                                                                                       X         * / K.5XeXeX",
"8X5X*X8.^ &   @ 9 u s u d u u d u u d u u u u u u u u d u u i u p p d d a a a a u u u u u u u u u s d 0 %   & V 7.&X5XqX",
"H.H.6._ d O - f [ >.6.5.:.:.:.:.:.:.5.1.1.:.>.>.>.:.1.6.8.6.6.3.:.:.:.:.,.:.:.1.:.>.&.&.>.>.:.:.6.7.5.] k 2 $ u ) A.H.K.",
"/ / ^ d & O d ] D.R.&X#XE.E.E.E.Q.#X/.#XE.E.R.R.R.R.$X&X=X&X$XQ.E.E.E.E.#X/.E.E.W.R.Y.Y.Y.R.E.%X&X&X$XJ.&.a @ & p ^ { { ",
"% % & O @ 9 / 7.&X4XaXwXwXtXaXtXaXaXtXtXwXwXqX8X5X4XaXeXaXaXaXqXtXtXaXaXtXaXaXtXwXqX5X5X4XqXtXtXaXaXaX*XD.[ 9 @ * % % % ",
"    X - a { 6.Q.5XtXaXaXaXaXaXaXaXaXaXaXaXaXaXaXaXeX5X1X1X7XaXaXeXtXeXaXaXaXeXeXaXeXaXaXtXaXaXaXwXaXaX5XE.A.) a = X     ",
"  X $ g ] A.Q.*XwXaXaXaXaXaXaXaXaXaXaXeXaXaXeXeXeX1XQ.G.G.{.5XeXeXeXeXeXaXaXaXeXaXaXaXaXaXaXaXaXaXtXaXqX*XW.A.-.j $   X ",
"    0 ' J.*X4XdXaXaXaXaXaXaXaXaXaX0XtX8X0X9XeXeX9X{.h./ ^ 2.{.9X9XeXeX9X0X0XaXtXtX0XeXaXaXaXaXaXaXaXwXwXqX4X*XH.' 0     ",
"  X a :.#XwXtXtXaXaXaXaXaXaXaXaXeXtXtXdX8X9XeX9X9X|.+.r w / U.2X9X9X7X9X0X8X0X8X0XeXaXaXaXaXaXaXaXwXqXaXaXaXqX#X3.p     ",
"    s 6.&XaXaXaXaXaXaXaXaXtXtXtXaXtX8X8X0X0X9X9X7X|.#.d 9 Z 2.I.}.>X1X0X0X7X0X0X0XtXeXeXaXaXaXaXqXqXqXaXaXaXaX$XZ.s   X ",
"    s 6.&XaXaXaXaXaXwXwXqX6XtXtXaX0XtX0X8X0X0X0X2X|.s.V f b C +.s.U.=X3X7X7X0X9X0XtXeXeXeXeXaXqXaXaXqXaXaXaXaX#X3.p     ",
"X X p 3.#XqXaXaXaXqXqXqXqXqXwXtXaXtX0X0X0X7X7X0X3X}.z.@.V b y t V n.{.3X0X3X3X0X0XeXeXeXtX8XqXtXaXaXaXaXaXaXwX#X-.p     ",
"X   p 3.$XqXaXaXaXqXqXqXqXqX6XtXeXeXeX0X0X0X0X3X2X Xx.i.| t < # l #.).,X3X0X0X0X9X9XeXeXtX8XqX6XaXaXaXaXaXaXqXW.-.p   X ",
"    p 3.$XaXaXaXaXqXqXqXqXqXwXtXeXeXeX0X0X3X2X3X,X XI.i.@.Z w 1 b #.(.,X0X3X0X0X0X9X9XeX0XqXwXqXqXaXaXaXaXaXwXW.-.p X   ",
"  X p 3.$XqXaXaXaXaXqXqXqXqXaXaXeXeX0X0X0X0X7X2X,X Xx.e.} B n Z | j.[.<X3X3X3X0X0X9XeXeXtXtXtXtXaXaXaXaXaXaXaX#XZ.p     ",
"    i :.%XtXaXaXaXaXaXqXaXaXtXtXeXeX9X0X0X3X3X3X:X Xx.e.} L (  .#.x. X:X<X3X3X0X9X9XeXeXeXtXtXwXaXaXaXaXaXtXwX%X3.i     ",
"    p 5.%XtXaXaXaXaXaXaXqXtXtXtXeX9X9X0X0X3X2X2X:X Xx.e.}  .I  .e.x. X,X3X3X3X0X9X0X9X9XeXtXeXtXaXaXaXaXaXaXtX#X3.i     ",
"    i 3.%XdXaXaXaXaXaXqXaXaXtXeXeX9X9X0X0X3X3X<X+X Xk.e. .L I  .e.M. X:X2X3X3X0X0X9X9XeXeX0XtXaXaXaXwXaXaXaXtX#X:.p     ",
"    i 5.%XtXtXtXaXaXaXaXqXaXtXtX9X0X0X0X3X3X3X<X,X Xk.q.I L L L q.k.`.:X,X3X3X7X3X0X9X9XtXeXaXaXaXqXwXaXaXaXdXE.3.p     ",
"    u :.%XdXtXtXaXaXaXaXtXtXtXeX9X9X0X3X3X3X<X<X:X`.N.q.I M n | o.f.^.oX2X3X3X3X0X0X0X9XeXeXaXaXqXqXqXqXaXaXtX#X;.p     ",
"    d :.%XdXtXaXaXaXaXaXtXeX0XeX9X0X0X3X3X3X<X<X-X XN.q.I M M M q.f. XoX,X<X3X3X3X0X0X9X9XeXeXaXaXqXqXaXaXaXdX#X3.p     ",
"    i ;.E.dXaXaXaXaXeXaXeXeXeXeX0X0X0X3X3X<X<X<XOX'.N.r. . . . .w.f.`.oX,X<X3X3X3X0X0X9XeXeXeXeXaXqXaXaXaXaXdXE.:.i     ",
"    i ;.E.dXaXaXaXaXeXeXeXeX9XeX0X3X3X3X3X<X<X<XoX'.N.r.E M M Y w.m.`.oX,X<X3X3X3X0X0X0X9XeXeXaXaXaXaXaXaXaXtX/.:.d     ",
"    u ;.R.dXtXtXaXaXeXtXeXeXeX9X3X0X3X3X<X,X<X<XoX^.N.w. .K K ! r.M.`..X+X<X<X3X3X0X0X9X0XtXtXtXaXaXaXaXaXaXaX/.:.i     ",
"    i :.E.dXtXtXeXaXeXaXeX9XeX9X0X0X3X3X3X<X<X<XoXOXN.r.E S M ! r.m.^..X<X<X<X3X3X3X0X0XtX0X0XtXaXaXaXaXaXaXtXE.<.i     ",
"    u :.%XdXtXaXtXqX0XtXeXeXeX9X9X0X0X0X3X3X<X,X:X'.M.r. .Y M E r.m.].oX<X<X<X3X3X3X0X0X0X0X0XtXaXaXaXaXaXtXtX/.<.i     ",
"    d :./.dXtXaXtXqXqXtXeXeX9X9X7X3X3X3X3X<X,X,XoX].m.0.! M M M 9.m.^.oX+X+X<X<X3X3X3X0XtX0X6XtXaXaXaXaXaXtXtX#X3.d     ",
"    i 3.%XdXtXtXtXqXtXtXeXeXeX9X0X0X3X3X,X:XoXoX^.^.p.9.M M M ! 9.y.^.^..XoX+XXX<X3X3X0X9X9X0X6XaXaXaXaXaXaXtX/.3.i     ",
"    i 3.%XdXtXaXqXtXtX6XeXeX9XeX0X<XXX).P.M.B.M.M.p.r.! ! M ! M ! r.y.m.B.B.z.P.).>X3X3XeX9X0XtXaXaXaXaXaXaXtX#X:.u     ",
"    p 3.%XtXtXaXaXaXtXqX9XeX9X9X6X>X).n.@.( n  . .Y T ! ! H ! M T E Y I U P ( +.i.!.>X0X9X9X0X0XaXaXaXaXaXaXdX%X1.i     ",
"    i 3.%XdXtXaXaXaXaX0XtXeXeX9X0XXXI.$.l > , 3 z z v H H ! ! ! H n z e 5 , < t } z.>X0X9X9XqXtXeXtXaXaXaXaXtX/.:.u .   ",
"    p 5.%XtXtXtXaXaXtXtX0XtX0X9X0X>Xh.( < . . + : 4 c H R ! ! R H c 4 : + . . < ( j.>X0XtXeXeXtXtXtXtXaXaXaXaX%X3.p     ",
"    i 3.%XdXaXaXaXaXqXtXtX6X9XeX0X>Xz.$.w # ; 3 4 z N H R ! ~ ! J N z 4 1 ; ; y $.b.>X3X9XeXtX0XtXqXtXaXaXaXaX%X5.p     ",
"    i :.%XtXtXaXaXwXaXqX0XtXeX9X0X<XU.#.Z y z c N N J ! ! ! ~ ! R D H c N y y Z #.I.>X3X0XtX0XtX0XqXqXtXaXaXaX%X5.p     ",
"    i :.%XtXaXaXtXwXqXtXtXeXeX9X0X3XU.n.$.P P Q R J ! ! ! ! ! ! W W X.W U U C | n.!.3X6X9X0XtX0XtX6XqXtXaXaXaX%X3.p     ",
"    p 5.%XtXtXaXtXqX6X6X0XtXeX0X0X<X[.b.n.t.t.u.u.0.9.~ ~ R R R 9.0.r.u.u.t.t.n.b.).<X0X9X9XeX9X6XqX6XtXaXaXtX#X3.p     ",
"    p 3.%XtXaXaXqXtX6XtXtX0X9X0X9X>XXX[.I.B.~.V.V.d.u.~ J G J J 9.r.d.V.V.B.B.).).XX3X3X9XeXeXeXtXqXqXtXaXaXtX#X3.p     ",
"    i 5.%XtXtXaXtXqX0XqXeX9X9X0X0X<X<XXX@X@X@X@X_.V.y.~ D B N H X.y.V._.@X@X@XXX>X<X3X6X0X9X9XeXtX6XwXwXaXaXaX/.3.i     ",
"    p 5.%XtXtXtXqX0X6X0XeXeX9X0X3X<X3X3X<X<X+X+X@X_.d.~ D N N D X.g._..X+X+X+X<X3X3X<X6X0X9X9X9XeXtXwXaXaXaXaXE.3.u     ",
"    u :./.dXaXaXaXqX0XtX0XtX0X0X3X3X3X3X3X<X<X<X:X'.N.o.M v M M o.g.`.+X+X<X<X3X3X3X3X6X0X0X0X0XeXwXtXqXaXaXwXQ.<.u     ",
"    u *.R.qXtXtXaXeXtX9XtX0XeX0X3X3X3X3X3X3X3X<XoX}.p.@.V n n n o.g.`.+X<X3X<X<X3X3X3X0X0X0X9XeXwXeXaXtXaXaX8XR.*.u     ",
"    u -.R.qXeXaXaXeXtXtXtX0XtX0X0X0X0X3X3X3X3X3X,X Xs.q.L n n L @.l. X,X<X3X3X3X6X6X3X6X9X9XtX9XaXaXaXaXaXaX8XY.=.r     ",
"    u *.R.dXaXaXaXeXaXeXeXtXtX0X9X0X7X3X3X3X3X3X2XXXP.s.@.}  .q.i.I.XX,X2X3X3X3X3X0X0X0X9X9XeXeXaXaXaXaXaXeX5XT.&.u     ",
"    u =.R.8XaXaXeXaXaXaXtXeXeXeXeX9X9X0X7X3X0X3X2X>X(.P.s.s.s.k.x.(.:X2X7X3X0X9X0X9X9XeXeXeXeXeXaXaXaXaXaXaX6XT.:.u     ",
"    d 1./.tXaXeXaXaXeXaXeXaXaXaXeXeXeX9XeX9X0X7X7X2X:XoX}.}.-X}.-X:X2X7X7X0X0X9X9XeXeXeXeXeXeXaXaXaXaXaXeXaXeXQ.:.d     ",
"    r ,./.0XeXeXaXaXaXeXaXaXaXaXeXeXeXeX9X0XdX7X7X7X7X2X;XdX;X;X2X7X2X7X7X0X0XeXeXeXeXaXtXtXaXtXtXtXaXaXaXaX9X{.=.u     ",
"    r &.Y.5X9XeX5X7X6X5X5X5X5X5X6X5X6X7X5X2X;X;X;X;X;X2X;XdXdXdX7X5X:X;X;X5X1X7X5X7X7X5X5X5X5X5X5X5X8X4X0XtX1XY.=.r     ",
"    8 _ h.Q.=X{.Q.Q.Q.Q.Q.Q.Q.$X{.{.{.{.{.{./.!.T.(.(.=X=X=X;X=X=X/./.(./.R./.%X&X{.&X&XQ.#XQ.Q.Q.Q.Q.{.&X&XQ.h._ 9     ",
"    q ^ :.h.K.K.j.h.G.h.D.D.D.D.G.G.G.h.h.h.a.a.S.S.S.S.L.L.L.S.L.F.S.a.a.S.S.S.G.G.D.G.G.D.D.h.D.D.h.G.K.K.h.,.^ q     ",
"    7 k _ ,.8.1.,.,.<.,.,.,.,.,.1.1.,.<.;.=.=.*.;.;.;.5.a.i.5.5.3.<.;.*.*.;.:.;.:.1.,.5.6.:.,.:.,.<.=.,.1.2.,._ h 6     ",
"    2 f / O.,.=.O.O.O.O.&.&.&.&.=.=.&.&.&.O.O...%.%.%.-.*.%.;.;.%.%.%...O...%.%.&.&.&.&.&.>.&.&.O.O.O.&.>.,.&./ f 2     ",
"    6 k _ ,.1.,.=.>.&.&.:.>.:.:.3.3.3.-.*.&.-.*.-.-.3.-.3.;.;.3.;.;.;.;.*.;.*.*.>.:.:.:.:.:.:.>.>.>.>.>.,.,.,._ h 6     ",
"  X 7 k O.2.7.7.,.:.,.,.6.4.6.6.4.8.4.3.6.6.6.8.3.Z.3.5.3.5.3.5.5.5.5.5.6.6.6.5.4.6.6.6.6.6.6.3.4.4.4.4.8.7.8.O.j 7     ",
"    6 g _ 1.1.,.>.&.*.>.>.:.:.:.-.3.-.3.3.-.3.3.3.3.3.-.-.-.%.-.;.:.3.3.3.:.;.>.:.-.-.:.:.:.3.3.>.>.>.>.4.4.4.' g 6     ",
"    2 a ^ ] ] ' ) ) ) ) [ ' ' ' ` ` ` ` ` ` ] ] ] ` ` { ` { { { ) ` ] ] ] ] [ [ ` ` ' ` ' ` ' ' { { { ' ] ] ' ^ s =     ",
"    & 9 d k j j g g g g g g h g g g g g g h h k j h h g g g g g g h h h h h h g h h g h h h g h g g g g j j g s 9 *   X ",
"X   o & = 2 6 6 2 2 2 2 6 6 6 6 6 6 6 6 6 6 6 6 6 6 6 6 2 2 = 6 6 6 6 6 6 6 6 6 6 6 6 6 6 6 6 6 6 6 6 = 6 7 6 = & o   X ",
"X   X     X             X                                                           X         X     X     X     X   X X ",
"X X                                                                 X   X                         X                 X X "
};
