/* XPM */
static char *_704f567a07242799b3c237fb46281c52qs9MXZlCcqp5LdL[] = {
/* columns rows colors chars-per-pixel */
"60 60 123 2 ",
"   c #060000",
".  c #0B0501",
"X  c #0E0904",
"o  c #110B06",
"O  c #100708",
"+  c #150E0A",
"@  c #16110C",
"#  c #19130E",
"$  c #180F10",
"%  c #1C1511",
"&  c #1E1913",
"*  c #211B16",
"=  c #241D1A",
"-  c #26211C",
";  c #29231E",
":  c #2C281F",
">  c #2C2521",
",  c #2E2923",
"<  c #312B26",
"1  c #342E29",
"2  c #36312B",
"3  c #39322C",
"4  c #38332D",
"5  c #39312E",
"6  c #39312F",
"7  c #3A322F",
"8  c #38302D",
"9  c #39342E",
"0  c #3B342E",
"q  c #3A352F",
"w  c #3B372E",
"e  c #3C352F",
"r  c #39342E",
"t  c #3A3230",
"y  c #3B3330",
"u  c #3B3331",
"i  c #393430",
"p  c #3B3630",
"a  c #3B3632",
"s  c #3D3630",
"d  c #3C3731",
"f  c #3E3731",
"g  c #3C3432",
"h  c #3D3532",
"j  c #3C3733",
"k  c #3E3633",
"l  c #3F3734",
"z  c #3C3631",
"x  c #3D3930",
"c  c #3E3A31",
"v  c #3D3832",
"b  c #3F3832",
"n  c #3E3933",
"m  c #3F3B32",
"M  c #3D3834",
"N  c #3E3935",
"B  c #3F3A34",
"V  c #3F3A36",
"C  c #3E3933",
"Z  c #403933",
"A  c #413A34",
"S  c #403B35",
"D  c #423B35",
"F  c #403B37",
"G  c #413D34",
"H  c #423E35",
"J  c #413C36",
"K  c #433C36",
"L  c #423D37",
"P  c #443D37",
"I  c #413B36",
"U  c #423A38",
"Y  c #433B39",
"T  c #433E38",
"R  c #453E38",
"E  c #443F39",
"W  c #463F39",
"Q  c #443C3A",
"!  c #453D3B",
"~  c #443F3B",
"^  c #463E3C",
"/  c #443E3A",
"(  c #444037",
")  c #454138",
"_  c #464239",
"`  c #45403A",
"'  c #47403A",
"]  c #46413B",
"[  c #47433A",
"{  c #46413D",
"}  c #47423C",
"|  c #46413C",
" . c #48413B",
".. c #48443B",
"X. c #49423C",
"o. c #48433D",
"O. c #4A433D",
"+. c #48433F",
"@. c #49453C",
"#. c #4A463D",
"$. c #49443E",
"%. c #4B443E",
"&. c #4A453F",
"*. c #4B473E",
"=. c #4C453F",
"-. c #49433E",
";. c #4C483F",
":. c #494440",
">. c #4B4640",
",. c #4B4642",
"<. c #4D4640",
"1. c #4C4741",
"2. c #4E4741",
"3. c #4B4541",
"4. c #4E4A41",
"5. c #4D4842",
"6. c #4F4842",
"7. c #4E4943",
"8. c #4F4B42",
"9. c #4F4A44",
"0. c #4E4943",
"q. c #504943",
"w. c #514A46",
/* pixels */
"& # o X . . . . o o o o . . o # % # o o O O O O . O O . . O + # # + o o X . . . . . . + O + # O O . .     . o X X .     ",
"# # # # + + # + # # # # # o + # # % # # # # # # # # # + # # # % # # % # # # # # # + # % # # + + + + @ o + @ # # @ @ o o ",
"@ # * = > > > > ; ; > ; > > = % # % ; ; : < < : : : > > ; ; * # * = : > < < ; ; ; ; > : * # # # ; - : : : : : , : : : : ",
". @ - 3 D A Z Z Z 3 Z Z D D 3 = + * < Z Z Z Z D Z Z Z Z Z 1 = # = < 3 A D P P Z Z Z Z Z 3 * # * Z Z Z Z w c w c c c Z w ",
". + : A %.=.%.X.W W W W X.=.Z ; o = Z W W =.W =.=.W W W K Z ; # - 3 R X.<.<.%.$.W W =.W P ; # ; c ..;.#........._ ( ..( ",
". + < D =.=.=.%.X.X.X.=.=.=.A : + ; D =.=.=.=.=.6.6.=.=.W Z ; # - e X.%.<.%.$.$.W =.=.W Z ; # ; G ;.;.;.;...........;.;.",
". # > Z %.=.=.=.=.W X.=.=.=.Z ; + ; Z W =.=.W =.=.=.W q.W Z ; # - e %.X.%.X.{ { =.W q.=.Z = # : w ;.q.;.;.#...( X._ =.=.",
"o % ; Z W %.=.=.=.X.X.=.=.=.Z ; # ; Z W =.W W W W W =.=.=.Z = # ; f %.X.X.W T #.=.=.=.=.Z ; # ; w #.;...;...( G P ) X.=.",
"o % : Z ` X.%.%.%.X.X.X.$.q.J : # ; A <.%.X.X.` =.W %.=.%.Z = + ; x 4.+.{ ( T #.#.#.5.{ x - @ - w $.7.;.6.=.W W W W =.%.",
"o % ; Z ` $.X.X.X.P P W $.7.P > @ ; f %.%.X.` X.W =.%.%.%.Z ; + ; N :.#.{ T T #.:.:.4.:.H : @ : w ` 7.$.q.^ W W ^ %.{ %.",
"o % ; Z ( ` ` ( J B A ` :.9.( > @ - w { %.$.` ..W W O.%.P Z = + : N 4.;.#.T _ { #.:.:.#.N : @ - e ` %.$.^ ^ ^ U X.` W X.",
"o # = 3 V J V m v w v J #.#.d ; + - w ` ` J V J W P K P G Z = + ; i _ _ T N N H V V T H 9 = @ * 3 Z W W ! ! U U A P A A ",
". + * < w w w w w r w d B V 2 * + * < w m v w 4 w w w 3 Z , * @ - < x w 4 4 4 4 9 d d 4 < * @ * < r Z Z Z Z U Z f u 6 6 ",
". + * : 2 2 1 1 1 2 2 w 2 2 : & o % : w 4 2 < 2 1 < < < : ; * # = : 1 2 , , , , , 2 2 , : & @ # > < 8 1 1 1 6 6 1 1 1 1 ",
"o o # - ; ; ; : > , < , ; - # @ o # * ; ; ; : ; : : : - - * # + # & - - : - - - - - - - & @ X @ * = > ; > > > > > ; = = ",
"o o o + @ # % % & = - & # @ X . . o # % # @ @ # & & & # + o o o o @ @ # # # % & % & % # @ .   X O % * $ $ * = = * $ $ $ ",
"& & @ @ o o @ @ @ @ o @ X X X @ & # @ @ + + @ @ % @ $ @ @ O @ % @ @ o @ @ & # @ o @ # # @ # @ o $ $ $ $ $ $ $ $ O $ $ $ ",
", < : ; - - : > - @ @ @ & > > , , > > > > > > - % o & * > > > > , > > : ; - - # @ # * ; : > : > > = = > > = $ $ $ = = = ",
"G H G a x a x a 2 * @ - 2 V G F V M i a a V V i = + * < a N N a V m B B d 4 , * @ * < 9 d V M M g g 6 g 6 < = $ ; < 8 8 ",
"+.:.{ _ _ { { ( w : % > x 4.4.:.:.{ { { :.,.:.V > @ - i +.:.+.~ { { { #...( 4 - @ ; 9 _ { { #.( ! Q Y ! Y 6 > = > 6 Q ! ",
"+.#.#.+.{ ,.#.#.w - @ , G 0.0.4.,.:.:.:.:.0.:.N - + > V ,.0.,.:.:.:.7.5.:.#.i ; @ : x #.:.:.:.5.^ 3.^ ^ ^ U > * > g ^ ^ ",
"{ +.+.+.@.,.,.{ i - o : G 4.0.{ { :.:.{ :.,.:.a - @ , ~ 0.0.:.{ { #.5.#.:.#.d ; @ ; x _ :.:.:.:.,.^ 3.w.^ g > $ > g ^ w.",
"( _ _ _ @.:.:.@.a : o : V :.,.[ ~ { { { { :.{ i - $ < ~ w.0.~ ~ V { { #.#.:.x : @ - w { #.#.{ ( ^ w.3.w.3.U = $ > g 3.w.",
"{ { _ +.{ 4.,.:.a - X : c { 0.,.{ :.:.:.:.:.:.a - @ , ~ w.0.~ ~ ( ( #.:.5.5.N : @ - x { 5.:.#.#.^ w.3.3.^ U = O > g 3.w.",
"+.:.#._ ( :.9.9.F : X - F ,.8.:.{ { :.+.:.,.:.N > $ > F :.,.:.,._ { { #.:.5.V > @ - w X.%.%.=.W w.^ w.3.^ U = $ ; g O.3.",
"_ +.{ H T :.0.0.F : @ - N +.0.@.:.+.+.{ :.,.:.j - $ - a { ,.{ +.{ _ _ _ #.:.i : @ ; f ` X.%.W W ^ ^ ^ ^ ^ U > $ > i +.^ ",
"( ( T N N ( { _ N : @ - w ( :.{ ~ F ~ F ~ { ~ i > % - i ~ { F F H x m m T T 2 - @ - 3 G R P Z Z ^ Y Y ^ U Z = $ = 8 T ( ",
"i x i i 4 d d d < & @ - 1 2 w i i i i i a j a 1 & $ = 1 a F a i 4 4 4 w d M 1 * o * < 3 e Z Z Z t t u g Z 1 = $ = > 2 4 ",
", , 1 < 2 , 1 < : & @ & - , , , 1 1 < < < 1 < > & @ & > 1 i < , , , < 2 1 2 : & o & , 1 Z < < < < < > Z > > = $ * > < , ",
": ; : : ; - - & & @ @ @ & & - - > - - - & - = & @ @ $ - - > > - : : - - - * & @ o @ & - ; : : ; > ; = ; = = $ $ @ * - = ",
"* * * & & # @ o X X X X @ @ % & - & $ $ @ $ @ @ O X O @ $ & & - & & & & @ @ @ o o o @ @ # % * * # # # % % # O O X o @ @ ",
"@ @ @ @ @ @ + o @ @ % @ @ @ % & & & $ $ @ @ @ @ % @ @ @ % $ $ & & # # @ o o # # & # + o O + # + # # # # % % $ $ @ @ o o ",
"o @ & - > > > > > > 1 , > > & $ $ % = > > > > > > , > > > & & $ & - - > > ; > , , , > > = $ O % & : : : : , : < , : : = ",
"o % - < i a i i M M ~ V i 1 > & $ = 1 u p i a g a B a M a 1 = $ & < 2 a l u u u j a N N < > $ & : i i i a N G ( M w 2 1 ",
"X & > a ^ :.{ ^ ,.,.0.,.{ F 1 & O = U ^ :.{ { :.~ ~ :.,.:.a = O & i V :.:.{ { ! ~ ~ ,.,.N > @ = i G _ +.:.,.;.,.+._ F V ",
"X @ > a ^ :.:.+.,.,.,.,.,.+.i - $ = Z ^ :.:.:.:.:.:.:.,.,.g > + - a :.,.,.+.,.+.~ :.,.,.N > @ = i H +.+.,.,.,.,.:.:._ F ",
"X @ > i V ,.,.:.:.+.+.+.,.,.F , $ ; Z ^ <.6.=.=.~ :.+.3.:.l ; $ > V ,.,.,.:.:.^ ~ ~ ,.,.N > @ - i ( +.:.,.,.:.:.@.[ ) { ",
"X @ > i ~ :.,.,.+.~ ! +.,.w.F , $ ; Z ^ 6.6.^ ^ V :.:.,.,.l ; + , V ,.,.,.:.+.! ~ :.,.,.N > @ - a _ *.*.,.:.{ { +._ { { ",
"  $ > M :.,.,.,.+.! ^ +.,.w.F , $ > U <.2.2.%.^ :.+.,.,.:.U - $ > M :.w.,.:.:.^ +.+.,.,.j > + = a _ ,.,.,.,.{ ~ ~ ~ [ [ ",
"  % , V ,.,.,.,.^ ! ^ ,.w.w.Y < $ > U 2.2.^ ^ <.,.,.O.w.,.U ; $ > j :.,.w.:.,.,.,.,.,.:.N > $ - a { ,.0.0.,.+.~ _ +.,.,.",
"O $ < Q q.q.^ Y ^ ! Q ^ :.,.U ; $ ; A =.<.^ Y ^ 3.3.3.3.O.Z = + = y ^ ^ q.=.^ =.,.:.w.^ g ; $ = a ~ :.:.,.:.~ ~ ~ :.:.:.",
"O $ > h ^ ^ ^ Z V V Q Q ! ! t - $ ; 8 P Y Y U U ^ ^ ^ Q Y Z = $ = 8 Q Q ^ ^ Y Y ^ Q :.! U = $ = i N { +.{ ~ j i M V T { ",
"O # ; 8 Z U Z Z u u g u 6 Z < = # = < Z Z Z y 7 U Z Z Z Z 1 = % = 8 8 5 Z Z Z Z l 6 l u 1 = $ = < a N M N j i i i i M M ",
"# % = > < 8 < Z 6 8 1 < > > ; % $ * ; < 8 < 8 8 < < < 1 < > * $ $ ; 8 < 8 < < < 1 < 1 < > = % = > 1 i 1 1 < , < < < < 2 ",
"o # # * = ; ; < > > > = = * $ $ $ # * = ; ; ; > > > ; = = * $ $ $ = > = = = = ; > ; ; = = $ $ # & - > > > - - - > > - - ",
"O O o o $ $ # % * = = * $ O . . o + $ # # $ $ $ * * * $ + + + + $ $ % $ + # % * * * $ + O O . O @ @ $ $ $ & & = & & + + ",
"# $ # $ $ $ $ $ % % $ % $ + + $ $ + $ $ % $ $ + $ O $ $ + + @ @ $ $ $ $ $ $ # $ $ $ $ + + $ # # @ @ @ @ $ @ @ % @ $ @ + ",
"> > > ; > > > > = % # $ ; > > > < > < < < < ; = + $ $ * > > > , 8 > > < > ; = % $ % * ; > > , > > > > > > - % @ % = > , ",
"Z Z D Z Z Z Z Z < & X * 2 x M M d i p d B V d 1 - X * < x x d d Z Z A A D D Z % @ - 2 d N d M d M d v V V 2 - o & < x M ",
"W W =.=.W =.=.W 9 - o : d #.#.#.{ ( { #.#.:.{ v - @ ; 9 { #.( #.' W W W ^ W Z ; # ; 9 _ #.{ { ( { #.{ #.$.d ; @ > d #.:.",
"^ q.=.q.:.<.6.=.N - o - N 4.0.5.:.#.:.:.7.9.$.V ; @ : x :.5.:.:.=.2.%.2.=.W Z ; # ; d #.5.:.:.#.#.:.5.7.5.m ; @ ; i #.:.",
"^ W W =.%.<.<.=.x ; o - d :.:.#.#.{ #.#.$.:.#.v ; @ - i { #.#.{ ' %.W =.=.P Z ; @ ; i #.#.#.#.{ { { #.:.#.m - @ - 4 { #.",
"$...$.$.%.$.:.$.d ; # : d #.:.#...{ ` $.$.$.#.d : @ ; 9 { #.#.:.$.$.` $.%.W Z = # ; i { { :.{ { { ( { :.{ v ; # : 4 { #.",
"` ` $.` { %.$.#.d : & > d { :.#.$.` $.{ $.5.{ v : # - i { :.#.:.$.$.` $.%.W Z > # ; 9 ( { #.#.#.{ #.{ { ` d : % : i { #.",
"$.{ $.{ $.$.:.$.4 > % > p { #.{ $.` ` { #.$.` v > # ; 4 { #.{ #.$.$.` ` X.X.e ; # ; 2 T { #.{ #.( { ( #._ d ; # > i #.:.",
"` ` ` ` ` ` { ` d > & > p ( #.{ $.{ ` ` ` $.` v > # ; 4 ` { #.#.$.$.P ` ` P e ; & ; p T ( { #._ T T ( { #.d > # ; i ( _ ",
"v v J A v V ( V 2 - & - 2 c H H J B A B B J V 4 - # - 1 x ( T T J v v A J J 2 - # - 1 w m H H ( B B B J V 4 - # : 4 H H ",
"w r w w 4 w d p < - @ & , 4 4 w w w w 2 4 w w < & # & > 4 x d d v w 2 w d d < - o - , 4 c 9 i i 2 4 4 d d , & o & , d d ",
"< 1 1 1 < 2 2 2 : & + % - , 1 1 2 1 1 1 < 2 1 , & o % : , 4 2 2 2 1 , 1 2 2 , & o % ; 1 2 2 2 1 < 1 2 2 2 : & X # > 2 2 ",
", , < , , < < 1 : & o # - , , , , 1 , , , 2 , ; & o % - , 2 2 2 < , , , 2 2 , & o % : , < 2 , < , , , 1 1 : % . % ; 2 2 "
};
